<svg width="402" height="252" viewBox="0 0 402 252" fill="none" xmlns="http://www.w3.org/2000/svg">
<path d="M93.9336 81.2812H100.555C101.792 81.2682 102.951 81.0729 104.031 80.6953C105.125 80.3177 106.082 79.7708 106.902 79.0547C107.71 78.3516 108.348 77.4922 108.816 76.4766C109.298 75.4479 109.539 74.2826 109.539 72.9805C109.539 71.6654 109.305 70.4935 108.836 69.4648C108.367 68.4362 107.723 67.5638 106.902 66.8477C106.095 66.1185 105.145 65.5651 104.051 65.1875C102.957 64.7969 101.792 64.5885 100.555 64.5625H91.6094V93H93.9336V81.2812ZM93.9336 79.2695V66.5742H100.555C101.492 66.5872 102.365 66.75 103.172 67.0625C103.992 67.362 104.702 67.7917 105.301 68.3516C105.887 68.9115 106.349 69.5885 106.688 70.3828C107.026 71.1641 107.195 72.043 107.195 73.0195C107.195 73.9831 107.02 74.849 106.668 75.6172C106.329 76.3854 105.861 77.0365 105.262 77.5703C104.663 78.1042 103.96 78.5208 103.152 78.8203C102.345 79.1068 101.479 79.2565 100.555 79.2695H93.9336ZM128.695 93H131.195V92.7461C131.013 92.1081 130.857 91.431 130.727 90.7148C130.609 89.9857 130.544 89.2695 130.531 88.5664V78.3516C130.518 77.2057 130.303 76.2031 129.887 75.3438C129.47 74.4844 128.897 73.7682 128.168 73.1953C127.439 72.6224 126.586 72.1927 125.609 71.9062C124.633 71.6198 123.585 71.4766 122.465 71.4766C121.345 71.4766 120.29 71.6328 119.301 71.9453C118.324 72.2578 117.465 72.6875 116.723 73.2344C115.98 73.7943 115.388 74.4518 114.945 75.207C114.503 75.9622 114.262 76.7891 114.223 77.6875L116.566 77.707C116.592 77.043 116.768 76.4505 117.094 75.9297C117.419 75.3958 117.849 74.9466 118.383 74.582C118.904 74.2174 119.509 73.9375 120.199 73.7422C120.889 73.5469 121.612 73.4492 122.367 73.4492C123.188 73.4492 123.949 73.5599 124.652 73.7812C125.368 73.9896 125.987 74.2956 126.508 74.6992C127.029 75.1029 127.439 75.6107 127.738 76.2227C128.038 76.8216 128.194 77.5182 128.207 78.3125V80.6953H123.617C122.302 80.6953 121.046 80.819 119.848 81.0664C118.65 81.3008 117.595 81.6849 116.684 82.2188C115.785 82.7526 115.062 83.4492 114.516 84.3086C113.982 85.1549 113.715 86.1836 113.715 87.3945C113.715 88.293 113.897 89.1133 114.262 89.8555C114.626 90.5977 115.121 91.2292 115.746 91.75C116.371 92.2578 117.113 92.6615 117.973 92.9609C118.832 93.2474 119.75 93.3906 120.727 93.3906C121.508 93.3906 122.257 93.306 122.973 93.1367C123.702 92.9805 124.385 92.7526 125.023 92.4531C125.674 92.1406 126.267 91.7695 126.801 91.3398C127.348 90.8971 127.823 90.4089 128.227 89.875C128.253 90.4219 128.298 90.9622 128.363 91.4961C128.441 92.0299 128.552 92.5312 128.695 93ZM121 91.3008C120.31 91.3008 119.665 91.2031 119.066 91.0078C118.467 90.8125 117.947 90.5391 117.504 90.1875C117.048 89.8359 116.69 89.4062 116.43 88.8984C116.182 88.3776 116.059 87.8047 116.059 87.1797C116.046 86.3984 116.215 85.7344 116.566 85.1875C116.918 84.6276 117.393 84.1589 117.992 83.7812C118.708 83.3255 119.587 83.0065 120.629 82.8242C121.684 82.6289 122.79 82.5247 123.949 82.5117H128.207V87.1406C127.908 87.7656 127.517 88.3385 127.035 88.8594C126.553 89.3672 126 89.8034 125.375 90.168C124.75 90.5326 124.066 90.8125 123.324 91.0078C122.582 91.2031 121.807 91.3008 121 91.3008ZM136.523 82.2383V82.6484C136.523 84.0286 136.699 85.3828 137.051 86.7109C137.402 88.026 137.943 89.1784 138.672 90.168C139.362 91.1445 140.221 91.9258 141.25 92.5117C142.279 93.0977 143.49 93.3906 144.883 93.3906C145.586 93.3906 146.263 93.306 146.914 93.1367C147.578 92.9805 148.197 92.7526 148.77 92.4531C149.251 92.2057 149.694 91.9128 150.098 91.5742C150.514 91.2227 150.879 90.8255 151.191 90.3828V92.707C151.191 93.7096 151.048 94.6211 150.762 95.4414C150.488 96.2617 150.091 96.9648 149.57 97.5508C149.023 98.1497 148.359 98.612 147.578 98.9375C146.81 99.263 145.924 99.4258 144.922 99.4258C144.284 99.4258 143.672 99.3411 143.086 99.1719C142.513 99.0156 141.966 98.7812 141.445 98.4688C141.016 98.2344 140.592 97.9414 140.176 97.5898C139.772 97.2383 139.382 96.8346 139.004 96.3789L137.695 97.8047C138.112 98.3776 138.587 98.8724 139.121 99.2891C139.668 99.7188 140.234 100.077 140.82 100.363C141.51 100.715 142.22 100.975 142.949 101.145C143.678 101.327 144.388 101.418 145.078 101.418C146.38 101.418 147.552 101.203 148.594 100.773C149.635 100.344 150.521 99.7383 151.25 98.957C151.979 98.1888 152.539 97.2643 152.93 96.1836C153.333 95.1159 153.535 93.931 153.535 92.6289V71.8672H151.367L151.27 74.8164C150.97 74.3607 150.625 73.944 150.234 73.5664C149.857 73.1888 149.44 72.8633 148.984 72.5898C148.411 72.2253 147.78 71.9518 147.09 71.7695C146.413 71.5742 145.69 71.4766 144.922 71.4766C143.451 71.4766 142.181 71.7891 141.113 72.4141C140.059 73.0391 139.193 73.8594 138.516 74.875C137.839 75.8776 137.337 77.0104 137.012 78.2734C136.686 79.5365 136.523 80.8581 136.523 82.2383ZM138.867 82.6484V82.2383C138.867 81.1966 138.978 80.168 139.199 79.1523C139.421 78.1367 139.772 77.2253 140.254 76.418C140.762 75.5716 141.432 74.8815 142.266 74.3477C143.099 73.8008 144.134 73.5273 145.371 73.5273C146.061 73.5273 146.706 73.6315 147.305 73.8398C147.917 74.0352 148.47 74.3151 148.965 74.6797C149.46 75.0443 149.896 75.474 150.273 75.9688C150.651 76.4635 150.957 77.0169 151.191 77.6289V87.5508C150.957 88.1367 150.638 88.6641 150.234 89.1328C149.844 89.6016 149.395 89.9987 148.887 90.3242C148.379 90.6497 147.826 90.8971 147.227 91.0664C146.628 91.2357 145.996 91.3203 145.332 91.3203C144.186 91.3203 143.203 91.0859 142.383 90.6172C141.562 90.1354 140.905 89.4974 140.41 88.7031C139.876 87.8958 139.486 86.9583 139.238 85.8906C139.004 84.8099 138.88 83.7292 138.867 82.6484ZM169.234 93.3906C170.992 93.3906 172.535 93.0456 173.863 92.3555C175.191 91.6654 176.259 90.7604 177.066 89.6406L175.582 88.5078C174.827 89.4453 173.922 90.1615 172.867 90.6562C171.812 91.151 170.634 91.3984 169.332 91.3984C168.199 91.3854 167.171 91.1576 166.246 90.7148C165.322 90.2721 164.527 89.6732 163.863 88.918C163.212 88.1758 162.698 87.3229 162.32 86.3594C161.956 85.3958 161.747 84.3542 161.695 83.2344V82.5898H177.516V81.1641C177.516 79.8229 177.32 78.5664 176.93 77.3945C176.552 76.2096 175.992 75.181 175.25 74.3086C174.521 73.4232 173.609 72.7331 172.516 72.2383C171.435 71.7305 170.198 71.4766 168.805 71.4766C167.477 71.4766 166.24 71.75 165.094 72.2969C163.961 72.8438 162.971 73.599 162.125 74.5625C161.266 75.526 160.589 76.6589 160.094 77.9609C159.612 79.263 159.371 80.6693 159.371 82.1797V83.0195C159.371 84.4388 159.612 85.7799 160.094 87.043C160.576 88.293 161.253 89.3932 162.125 90.3438C162.984 91.2812 164.02 92.0234 165.23 92.5703C166.441 93.1172 167.776 93.3906 169.234 93.3906ZM168.805 73.4883C169.807 73.4883 170.699 73.6836 171.48 74.0742C172.262 74.4518 172.926 74.9596 173.473 75.5977C174.007 76.2357 174.423 76.9779 174.723 77.8242C175.035 78.6706 175.191 79.5169 175.191 80.3633V80.5781H161.812C161.943 79.5625 162.203 78.625 162.594 77.7656C162.984 76.8932 163.479 76.1445 164.078 75.5195C164.69 74.8815 165.393 74.3867 166.188 74.0352C166.982 73.6706 167.854 73.4883 168.805 73.4883ZM209.129 90.9297V64.5625H206.785V93H223.602V90.9297H209.129ZM228.09 82.1211V82.7461C228.09 84.1914 228.305 85.5586 228.734 86.8477C229.164 88.1367 229.783 89.263 230.59 90.2266C231.397 91.2031 232.387 91.9779 233.559 92.5508C234.73 93.1107 236.059 93.3906 237.543 93.3906C239.014 93.3906 240.329 93.1042 241.488 92.5312C242.66 91.9583 243.643 91.1901 244.438 90.2266C245.245 89.25 245.863 88.1237 246.293 86.8477C246.723 85.5586 246.938 84.1914 246.938 82.7461V82.1211C246.938 80.6758 246.723 79.3086 246.293 78.0195C245.863 76.7305 245.245 75.6042 244.438 74.6406C243.63 73.6641 242.641 72.8958 241.469 72.3359C240.31 71.763 238.988 71.4766 237.504 71.4766C236.02 71.4766 234.698 71.763 233.539 72.3359C232.38 72.9089 231.397 73.6771 230.59 74.6406C229.783 75.6172 229.164 76.75 228.734 78.0391C228.305 79.3281 228.09 80.6888 228.09 82.1211ZM230.414 82.7461V82.1211C230.427 81.0143 230.583 79.9401 230.883 78.8984C231.195 77.8568 231.651 76.9388 232.25 76.1445C232.849 75.3372 233.585 74.6927 234.457 74.2109C235.342 73.7292 236.358 73.4883 237.504 73.4883C238.65 73.4883 239.659 73.7292 240.531 74.2109C241.417 74.6927 242.159 75.3372 242.758 76.1445C243.357 76.9388 243.812 77.8568 244.125 78.8984C244.438 79.9401 244.6 81.0143 244.613 82.1211V82.7461C244.6 83.8659 244.438 84.9466 244.125 85.9883C243.826 87.0299 243.376 87.9544 242.777 88.7617C242.178 89.556 241.443 90.194 240.57 90.6758C239.698 91.1576 238.689 91.3984 237.543 91.3984C236.384 91.3984 235.362 91.1576 234.477 90.6758C233.591 90.194 232.849 89.556 232.25 88.7617C231.651 87.9544 231.195 87.0299 230.883 85.9883C230.583 84.9466 230.427 83.8659 230.414 82.7461ZM266.836 93H269.336V92.7461C269.154 92.1081 268.997 91.431 268.867 90.7148C268.75 89.9857 268.685 89.2695 268.672 88.5664V78.3516C268.659 77.2057 268.444 76.2031 268.027 75.3438C267.611 74.4844 267.038 73.7682 266.309 73.1953C265.579 72.6224 264.727 72.1927 263.75 71.9062C262.773 71.6198 261.725 71.4766 260.605 71.4766C259.486 71.4766 258.431 71.6328 257.441 71.9453C256.465 72.2578 255.605 72.6875 254.863 73.2344C254.121 73.7943 253.529 74.4518 253.086 75.207C252.643 75.9622 252.402 76.7891 252.363 77.6875L254.707 77.707C254.733 77.043 254.909 76.4505 255.234 75.9297C255.56 75.3958 255.99 74.9466 256.523 74.582C257.044 74.2174 257.65 73.9375 258.34 73.7422C259.03 73.5469 259.753 73.4492 260.508 73.4492C261.328 73.4492 262.09 73.5599 262.793 73.7812C263.509 73.9896 264.128 74.2956 264.648 74.6992C265.169 75.1029 265.579 75.6107 265.879 76.2227C266.178 76.8216 266.335 77.5182 266.348 78.3125V80.6953H261.758C260.443 80.6953 259.186 80.819 257.988 81.0664C256.79 81.3008 255.736 81.6849 254.824 82.2188C253.926 82.7526 253.203 83.4492 252.656 84.3086C252.122 85.1549 251.855 86.1836 251.855 87.3945C251.855 88.293 252.038 89.1133 252.402 89.8555C252.767 90.5977 253.262 91.2292 253.887 91.75C254.512 92.2578 255.254 92.6615 256.113 92.9609C256.973 93.2474 257.891 93.3906 258.867 93.3906C259.648 93.3906 260.397 93.306 261.113 93.1367C261.842 92.9805 262.526 92.7526 263.164 92.4531C263.815 92.1406 264.408 91.7695 264.941 91.3398C265.488 90.8971 265.964 90.4089 266.367 89.875C266.393 90.4219 266.439 90.9622 266.504 91.4961C266.582 92.0299 266.693 92.5312 266.836 93ZM259.141 91.3008C258.451 91.3008 257.806 91.2031 257.207 91.0078C256.608 90.8125 256.087 90.5391 255.645 90.1875C255.189 89.8359 254.831 89.4062 254.57 88.8984C254.323 88.3776 254.199 87.8047 254.199 87.1797C254.186 86.3984 254.355 85.7344 254.707 85.1875C255.059 84.6276 255.534 84.1589 256.133 83.7812C256.849 83.3255 257.728 83.0065 258.77 82.8242C259.824 82.6289 260.931 82.5247 262.09 82.5117H266.348V87.1406C266.048 87.7656 265.658 88.3385 265.176 88.8594C264.694 89.3672 264.141 89.8034 263.516 90.168C262.891 90.5326 262.207 90.8125 261.465 91.0078C260.723 91.2031 259.948 91.3008 259.141 91.3008ZM274.645 82.2383V82.6484C274.645 84.0156 274.82 85.3438 275.172 86.6328C275.523 87.9219 276.038 89.0612 276.715 90.0508C277.405 91.0664 278.271 91.8802 279.312 92.4922C280.367 93.0911 281.598 93.3906 283.004 93.3906C284.28 93.3906 285.478 93.1302 286.598 92.6094C287.73 92.0755 288.661 91.3073 289.391 90.3047L289.469 93H291.656V63H289.312V74.7188C288.622 73.7031 287.737 72.9089 286.656 72.3359C285.576 71.763 284.371 71.4766 283.043 71.4766C281.598 71.4766 280.348 71.7826 279.293 72.3945C278.238 72.9935 277.359 73.8073 276.656 74.8359C276.005 75.7995 275.504 76.9258 275.152 78.2148C274.814 79.5039 274.645 80.8451 274.645 82.2383ZM276.988 82.6484V82.2383C276.988 81.1966 277.099 80.1615 277.32 79.1328C277.555 78.1042 277.919 77.1797 278.414 76.3594C278.935 75.513 279.605 74.8294 280.426 74.3086C281.246 73.7878 282.268 73.5273 283.492 73.5273C284.846 73.5273 286.031 73.8984 287.047 74.6406C288.076 75.3828 288.831 76.3464 289.312 77.5312V87.6484C288.805 88.7943 288.023 89.6927 286.969 90.3438C285.914 90.9948 284.742 91.3203 283.453 91.3203C282.242 91.3203 281.227 91.0664 280.406 90.5586C279.599 90.0378 278.935 89.3607 278.414 88.5273C277.932 87.707 277.574 86.7826 277.34 85.7539C277.105 84.7253 276.988 83.6901 276.988 82.6484ZM307.375 93.3906C309.133 93.3906 310.676 93.0456 312.004 92.3555C313.332 91.6654 314.4 90.7604 315.207 89.6406L313.723 88.5078C312.967 89.4453 312.062 90.1615 311.008 90.6562C309.953 91.151 308.775 91.3984 307.473 91.3984C306.34 91.3854 305.311 91.1576 304.387 90.7148C303.462 90.2721 302.668 89.6732 302.004 88.918C301.353 88.1758 300.839 87.3229 300.461 86.3594C300.096 85.3958 299.888 84.3542 299.836 83.2344V82.5898H315.656V81.1641C315.656 79.8229 315.461 78.5664 315.07 77.3945C314.693 76.2096 314.133 75.181 313.391 74.3086C312.661 73.4232 311.75 72.7331 310.656 72.2383C309.576 71.7305 308.339 71.4766 306.945 71.4766C305.617 71.4766 304.38 71.75 303.234 72.2969C302.102 72.8438 301.112 73.599 300.266 74.5625C299.406 75.526 298.729 76.6589 298.234 77.9609C297.753 79.263 297.512 80.6693 297.512 82.1797V83.0195C297.512 84.4388 297.753 85.7799 298.234 87.043C298.716 88.293 299.393 89.3932 300.266 90.3438C301.125 91.2812 302.16 92.0234 303.371 92.5703C304.582 93.1172 305.917 93.3906 307.375 93.3906ZM306.945 73.4883C307.948 73.4883 308.84 73.6836 309.621 74.0742C310.402 74.4518 311.066 74.9596 311.613 75.5977C312.147 76.2357 312.564 76.9779 312.863 77.8242C313.176 78.6706 313.332 79.5169 313.332 80.3633V80.5781H299.953C300.083 79.5625 300.344 78.625 300.734 77.7656C301.125 76.8932 301.62 76.1445 302.219 75.5195C302.831 74.8815 303.534 74.3867 304.328 74.0352C305.122 73.6706 305.995 73.4883 306.945 73.4883ZM320.691 82.2383V82.6484C320.691 84.0156 320.867 85.3438 321.219 86.6328C321.57 87.9219 322.085 89.0612 322.762 90.0508C323.452 91.0664 324.318 91.8802 325.359 92.4922C326.414 93.0911 327.645 93.3906 329.051 93.3906C330.327 93.3906 331.525 93.1302 332.645 92.6094C333.777 92.0755 334.708 91.3073 335.438 90.3047L335.516 93H337.703V63H335.359V74.7188C334.669 73.7031 333.784 72.9089 332.703 72.3359C331.622 71.763 330.418 71.4766 329.09 71.4766C327.645 71.4766 326.395 71.7826 325.34 72.3945C324.285 72.9935 323.406 73.8073 322.703 74.8359C322.052 75.7995 321.551 76.9258 321.199 78.2148C320.861 79.5039 320.691 80.8451 320.691 82.2383ZM323.035 82.6484V82.2383C323.035 81.1966 323.146 80.1615 323.367 79.1328C323.602 78.1042 323.966 77.1797 324.461 76.3594C324.982 75.513 325.652 74.8294 326.473 74.3086C327.293 73.7878 328.315 73.5273 329.539 73.5273C330.893 73.5273 332.078 73.8984 333.094 74.6406C334.122 75.3828 334.878 76.3464 335.359 77.5312V87.6484C334.852 88.7943 334.07 89.6927 333.016 90.3438C331.961 90.9948 330.789 91.3203 329.5 91.3203C328.289 91.3203 327.273 91.0664 326.453 90.5586C325.646 90.0378 324.982 89.3607 324.461 88.5273C323.979 87.707 323.621 86.7826 323.387 85.7539C323.152 84.7253 323.035 83.6901 323.035 82.6484Z" fill="black"/>
<path d="M45 63L60 78L45 93" stroke="#101010" stroke-width="2"/>
<path d="M95 0.999939C79 0.999946 65 0.99999 45 0.999939C25 0.999888 45 33 25 33C20.095 33 16.1523 33 12.995 33C6.36762 33 1 38.3725 1 44.9999V239C1 245.627 6.37257 251 13 251H389C395.627 251 401 245.627 401 239V45C401 38.3725 395.673 33 389.046 33C337.057 33 132.445 33 115 33C95 33 111 0.999932 95 0.999939ZM95 0.999939L135 0.999939M135 0.999939C151 0.999932 135 33 155 33M135 0.999939H175C191 0.999932 175 32.9999 195 32.9999" stroke="#101010" stroke-width="2"/>
</svg>
