<svg width="283" height="45" viewBox="0 0 283 45" fill="none" xmlns="http://www.w3.org/2000/svg">
<path d="M9.15039 36V33.293L11.9453 32.7656V13.7988H6.79492L6.42578 17.0684H3.08594V10.4062H25.252V17.0684H21.9121L21.5254 13.7988H16.375V32.7656L19.1699 33.293V36H9.15039ZM33.7949 36V33.293L36.5898 32.7656V13.7988H31.4395L31.0703 17.0684H27.7305V10.4062H49.8965V17.0684H46.5566L46.1699 13.7988H41.0195V32.7656L43.8145 33.293V36H33.7949Z" fill="#6080FF"/>
<path d="M80.7402 36V33.293L83.5352 32.7656V13.7988H78.3848L78.0156 17.0684H74.6758V10.4062H96.8418V17.0684H93.502L93.1152 13.7988H87.9648V32.7656L90.7598 33.293V36H80.7402ZM97.5801 36V33.293L100.217 32.7656V20.2324L97.4219 19.7051V16.9805H104.646V32.7656L107.266 33.293V36H97.5801ZM100.041 12.6738V8.57812H104.646V12.6738H100.041ZM117.654 43.6816C116.717 43.6816 115.674 43.5527 114.525 43.2949C113.389 43.0488 112.387 42.7031 111.52 42.2578L112.434 39.0059C113.184 39.3574 114.01 39.6387 114.912 39.8496C115.814 40.0605 116.67 40.166 117.479 40.166C118.932 40.166 119.992 39.7617 120.66 38.9531C121.34 38.1562 121.68 37.0254 121.68 35.5605V34.0664C120.473 35.6016 118.85 36.3691 116.811 36.3691C115.252 36.3691 113.916 35.9824 112.803 35.209C111.689 34.4355 110.834 33.3516 110.236 31.957C109.65 30.5625 109.357 28.9453 109.357 27.1055V26.7363C109.357 24.7207 109.65 22.957 110.236 21.4453C110.834 19.9219 111.684 18.7383 112.785 17.8945C113.887 17.0508 115.211 16.6289 116.758 16.6289C117.918 16.6289 118.926 16.8691 119.781 17.3496C120.637 17.8184 121.363 18.4922 121.961 19.3711L122.295 16.9805H128.395V19.7051L126.109 20.1973V35.5781C126.109 38.0625 125.365 40.0312 123.877 41.4844C122.389 42.9492 120.314 43.6816 117.654 43.6816ZM118.006 32.8711C119.658 32.8711 120.883 32.1621 121.68 30.7441V22.2715C121.293 21.6035 120.795 21.082 120.186 20.707C119.576 20.3203 118.855 20.127 118.023 20.127C116.57 20.127 115.498 20.7422 114.807 21.9727C114.127 23.1914 113.787 24.7793 113.787 26.7363V27.1055C113.787 28.8633 114.121 30.2637 114.789 31.3066C115.469 32.3496 116.541 32.8711 118.006 32.8711ZM138.801 36.3691C136.996 36.3691 135.432 35.9707 134.107 35.1738C132.783 34.3652 131.752 33.252 131.014 31.834C130.287 30.416 129.924 28.793 129.924 26.9648V26.2266C129.924 24.375 130.281 22.7285 130.996 21.2871C131.723 19.834 132.713 18.6973 133.967 17.877C135.232 17.0449 136.68 16.6289 138.309 16.6289C140.875 16.6289 142.826 17.3906 144.162 18.9141C145.51 20.4375 146.184 22.5293 146.184 25.1895V27.7207H134.512L134.477 27.8086C134.547 29.3086 134.98 30.5449 135.777 31.5176C136.574 32.4785 137.711 32.959 139.188 32.959C140.219 32.959 141.156 32.8184 142 32.5371C142.844 32.2559 143.629 31.8574 144.355 31.3418L145.727 34.1191C144.977 34.7637 144.021 35.3027 142.861 35.7363C141.713 36.1582 140.359 36.3691 138.801 36.3691ZM134.582 24.6094H141.947V24.1523C141.947 22.9102 141.654 21.9023 141.068 21.1289C140.494 20.3555 139.592 19.9688 138.361 19.9688C137.283 19.9688 136.41 20.4023 135.742 21.2695C135.086 22.1367 134.682 23.2207 134.529 24.5215L134.582 24.6094ZM148.908 36V33.293L151.527 32.7656V20.2324L148.75 19.7051V16.9805H155.605L155.834 19.3711L155.869 19.7578C156.889 17.6719 158.365 16.6289 160.299 16.6289C161.025 16.6289 161.676 16.7227 162.25 16.9102L161.74 21.0059L159.262 20.8652C158.453 20.8184 157.785 20.9766 157.258 21.3398C156.73 21.7031 156.297 22.207 155.957 22.8516V32.7656L158.594 33.293V36H148.908ZM179.002 36V33.293L181.797 32.7656V13.7988H176.646L176.277 17.0684H172.938V10.4062H195.104V17.0684H191.764L191.377 13.7988H186.227V32.7656L189.021 33.293V36H179.002ZM202.082 36.3691C200.148 36.3691 198.643 35.8711 197.564 34.875C196.486 33.8789 195.947 32.5078 195.947 30.7617C195.947 28.9688 196.674 27.5156 198.127 26.4023C199.592 25.2891 201.689 24.7324 204.42 24.7324H207.32V23.1328C207.32 22.125 207.016 21.3223 206.406 20.7246C205.809 20.127 204.936 19.8281 203.787 19.8281C203.131 19.8281 202.551 19.9102 202.047 20.0742C201.543 20.2266 201.092 20.4492 200.693 20.7422L200.307 23.3086H197.037L197.002 18.6152C197.928 17.9941 198.965 17.5078 200.113 17.1562C201.273 16.8047 202.557 16.6289 203.963 16.6289C206.377 16.6289 208.275 17.1973 209.658 18.334C211.053 19.4707 211.75 21.0879 211.75 23.1855V31.5703C211.75 31.8281 211.75 32.0801 211.75 32.3262C211.762 32.5605 211.779 32.8008 211.803 33.0469L213.736 33.293V36H207.953C207.836 35.5898 207.725 35.1914 207.619 34.8047C207.525 34.418 207.455 34.0312 207.408 33.6445C206.775 34.4414 206.008 35.0977 205.105 35.6133C204.203 36.1172 203.195 36.3691 202.082 36.3691ZM203.084 32.9414C203.986 32.9414 204.818 32.7363 205.58 32.3262C206.354 31.9043 206.934 31.377 207.32 30.7441V27.5625H204.367C203.043 27.5625 202.041 27.873 201.361 28.4941C200.693 29.1035 200.359 29.8184 200.359 30.6387C200.359 32.1738 201.268 32.9414 203.084 32.9414ZM220.17 43.6816C219.807 43.6816 219.385 43.6465 218.904 43.5762C218.436 43.5059 218.025 43.418 217.674 43.3125L218.166 39.9902C218.365 40.0254 218.617 40.0547 218.922 40.0781C219.227 40.1016 219.467 40.1133 219.643 40.1133C220.381 40.1133 221.002 39.8848 221.506 39.4277C222.01 38.9707 222.42 38.3203 222.736 37.4766L223.316 35.9648L216.812 20.0215L214.598 19.7051V16.9805H223.809V19.7051L221.488 20.0566L224.775 28.916L225.355 30.5684H225.461L229.363 20.0391L227.025 19.7051V16.9805H235.762V19.7051L233.705 20.0039L226.34 38.8652C225.824 40.2129 225.092 41.3496 224.143 42.2754C223.193 43.2129 221.869 43.6816 220.17 43.6816ZM236.869 36V33.293L239.523 32.7656V11.8301L236.711 11.3027V8.57812H243.953V32.7656L246.59 33.293V36H236.869ZM257.119 36.3691C255.291 36.3691 253.721 35.959 252.408 35.1387C251.096 34.3066 250.088 33.1641 249.385 31.7109C248.682 30.2578 248.33 28.582 248.33 26.6836V26.3145C248.33 24.4277 248.682 22.7578 249.385 21.3047C250.088 19.8516 251.096 18.709 252.408 17.877C253.721 17.0449 255.279 16.6289 257.084 16.6289C258.912 16.6289 260.482 17.0449 261.795 17.877C263.107 18.6973 264.115 19.8398 264.818 21.3047C265.521 22.7578 265.873 24.4277 265.873 26.3145V26.6836C265.873 28.5938 265.521 30.2754 264.818 31.7285C264.115 33.1816 263.107 34.3184 261.795 35.1387C260.494 35.959 258.936 36.3691 257.119 36.3691ZM257.119 32.959C258.584 32.959 259.674 32.3789 260.389 31.2188C261.104 30.0469 261.461 28.5352 261.461 26.6836V26.3145C261.461 24.498 261.098 23.0039 260.371 21.832C259.656 20.6484 258.561 20.0566 257.084 20.0566C255.619 20.0566 254.529 20.6484 253.814 21.832C253.111 23.0039 252.76 24.498 252.76 26.3145V26.6836C252.76 28.5352 253.111 30.0469 253.814 31.2188C254.529 32.3789 255.631 32.959 257.119 32.959ZM268.545 36V33.293L271.164 32.7656V20.2324L268.387 19.7051V16.9805H275.242L275.471 19.3711L275.506 19.7578C276.525 17.6719 278.002 16.6289 279.936 16.6289C280.662 16.6289 281.312 16.7227 281.887 16.9102L281.377 21.0059L278.898 20.8652C278.09 20.8184 277.422 20.9766 276.895 21.3398C276.367 21.7031 275.934 22.207 275.594 22.8516V32.7656L278.23 33.293V36H268.545Z" fill="#6080FF"/>
<line x1="63" x2="63" y2="45" stroke="#6080FF" stroke-width="2"/>
</svg>
